<svg id="Layer_1" height="512" viewBox="0 0 512 512" width="512" xmlns="http://www.w3.org/2000/svg" data-name="Layer 1"><path d="m443.882 132.784a136.653 136.653 0 0 0 -116-82.907l5.869-14.044a5.966 5.966 0 0 0 -4.555-8.214 240.291 240.291 0 0 0 -147.072.138l-.04.012-.021.007v.015a5.955 5.955 0 0 0 -3.808 8.041l5.869 14.044a136.654 136.654 0 0 0 -116 82.906l-37.747 88.818a6 6 0 0 0 3.952 8.137l78.371 21.263v234.28a6 6 0 0 0 5.75 5.994l107.61 4.5a5.993 5.993 0 0 0 3.884-1.22l25.993-19.785 25.04 19.724a6 6 0 0 0 3.713 1.287c.082 0 .165 0 .248-.006l108.61-4.5a6 6 0 0 0 5.752-5.994v-234.068l78.386-21.475a6 6 0 0 0 3.936-8.133zm-130.346-97.209-57.536 35.751-57.6-35.794a227.911 227.911 0 0 1 115.136.043zm1.9 12.942-22.578 54.026-26.794-23.343zm-69.5 30.683-26.8 23.343-22.574-54.023zm-133.236 159.366-68.587-18.6 7.246-17.051 61.341 16.634zm280.6-70.566a6 6 0 0 0 -6 6v305.523l-100.641 4.17-24.659-19.425v-271.789a6 6 0 0 0 -12 0v271.728l-25.6 19.493-99.7-4.17v-305.53a6 6 0 0 0 -12 0v33.116l-56.6-15.354 23.067-54.286a124.663 124.663 0 0 1 109.861-75.862l22.246 53.229a6 6 0 0 0 9.477 2.211l29.249-25.48v73.759a6 6 0 0 0 12 0v-73.759l29.249 25.48a6 6 0 0 0 9.477-2.211l22.246-53.229a124.666 124.666 0 0 1 109.866 75.862l23.086 54.333-56.624 15.511v-33.32a6 6 0 0 0 -6-6zm6 70.77v-19.008l61.359-16.808 7.234 17.024z"/><path d="m359.01 188.48h-67.62a6 6 0 0 0 -6 6v45.73a23.914 23.914 0 0 0 11.458 20.511l25.21 15.5a6 6 0 0 0 6.286 0l25.2-15.5a24.237 24.237 0 0 0 11.466-20.511v-45.73a6 6 0 0 0 -6-6zm-6 51.73a12.158 12.158 0 0 1 -5.753 10.289l-22.057 13.567-22.067-13.566a12 12 0 0 1 -5.743-10.289v-39.731h55.62z"/><path d="m239.45 144.9h-12.79a6 6 0 0 0 0 12h12.79a6 6 0 0 0 0-12z"/><path d="m153.28 114.31a6 6 0 0 0 -6 6v6.64a6 6 0 1 0 12 0v-6.64a6 6 0 0 0 -6-6z"/><path d="m153.28 138.24a6 6 0 0 0 -6 6v58.68a6 6 0 0 0 12 0v-58.68a6 6 0 0 0 -6-6z"/><path d="m239.45 201.05h-12.79a6 6 0 0 0 0 12h12.79a6 6 0 0 0 0-12z"/><path d="m239.45 257.2h-12.79a6 6 0 0 0 0 12h12.79a6 6 0 0 0 0-12z"/><path d="m239.45 313.34h-12.79a6 6 0 0 0 0 12h12.79a6 6 0 0 0 0-12z"/><path d="m239.45 369.49h-12.79a6 6 0 1 0 0 12h12.79a6 6 0 1 0 0-12z"/><path d="m239.45 425.64h-12.79a6 6 0 1 0 0 12h12.79a6 6 0 0 0 0-12z"/></svg>